<svg width="56" height="56" viewBox="0 0 56 56" fill="none" xmlns="http://www.w3.org/2000/svg">
<circle cx="28" cy="28" r="28" fill="url(#paint0_linear_1967_2)"/>
<path d="M20.0008 22.4141L16.7578 19.1721L18.1728 17.7571L21.4148 21.0001H36.6568C36.8127 21.0001 36.9664 21.0365 37.1057 21.1064C37.245 21.1764 37.366 21.2779 37.459 21.403C37.5521 21.528 37.6147 21.6731 37.6417 21.8266C37.6688 21.9801 37.6595 22.1378 37.6148 22.2871L35.2148 30.2871C35.1531 30.4932 35.0265 30.6738 34.8539 30.8023C34.6813 30.9307 34.4719 31.0001 34.2568 31.0001H22.0008V33.0001H33.0008V35.0001H21.0008C20.7356 35.0001 20.4812 34.8947 20.2937 34.7072C20.1062 34.5197 20.0008 34.2653 20.0008 34.0001V22.4141ZM21.5008 39.0001C21.103 39.0001 20.7215 38.842 20.4402 38.5607C20.1588 38.2794 20.0008 37.8979 20.0008 37.5001C20.0008 37.1023 20.1588 36.7207 20.4402 36.4394C20.7215 36.1581 21.103 36.0001 21.5008 36.0001C21.8986 36.0001 22.2802 36.1581 22.5615 36.4394C22.8428 36.7207 23.0008 37.1023 23.0008 37.5001C23.0008 37.8979 22.8428 38.2794 22.5615 38.5607C22.2802 38.842 21.8986 39.0001 21.5008 39.0001ZM33.5008 39.0001C33.103 39.0001 32.7215 38.842 32.4402 38.5607C32.1588 38.2794 32.0008 37.8979 32.0008 37.5001C32.0008 37.1023 32.1588 36.7207 32.4402 36.4394C32.7215 36.1581 33.103 36.0001 33.5008 36.0001C33.8986 36.0001 34.2802 36.1581 34.5615 36.4394C34.8428 36.7207 35.0008 37.1023 35.0008 37.5001C35.0008 37.8979 34.8428 38.2794 34.5615 38.5607C34.2802 38.842 33.8986 39.0001 33.5008 39.0001Z" fill="white"/>
<defs>
<linearGradient id="paint0_linear_1967_2" x1="14.9078" y1="10.7809" x2="45.7614" y2="56" gradientUnits="userSpaceOnUse">
<stop stop-color="#BEADFF"/>
<stop offset="1" stop-color="#836AE4"/>
</linearGradient>
</defs>
</svg>
